<?xml version="1.0" encoding="utf-8"?>
<!-- Generator: Adobe Illustrator 24.3.0, SVG Export Plug-In . SVG Version: 6.00 Build 0)  -->
<svg version="1.1" id="Ebene_1" xmlns="http://www.w3.org/2000/svg" xmlns:xlink="http://www.w3.org/1999/xlink" x="0px" y="0px"
	 viewBox="0 0 566.93 566.93" style="enable-background:new 0 0 566.93 566.93;" xml:space="preserve">
<style type="text/css">
	.st0{fill:#2F2A30;}
	.st1{fill:url(#SVGID_1_);}
</style>
<g>
	<path class="st0" d="M148.55,532.82c-0.25-1.68-0.42-3.38-0.42-5.12c0-15.79,10.54-29.1,24.96-33.33l-7.16-109.86
		c-17.6-1.7-31.37-16.53-31.37-34.58c0-3.73,0.6-7.31,1.69-10.68L24.62,286.74c-5.78,7.22-14.38,12.04-24.13,12.88
		C6.45,405.6,70.6,496.01,161.53,539.41C157.14,537.32,152.81,535.13,148.55,532.82z"/>
	<path class="st0" d="M187.76,379.35c-3.86,2.43-8.23,4.1-12.91,4.85l7.08,108.8c0.32-0.01,0.63-0.05,0.95-0.05
		c5.64,0,10.94,1.37,15.65,3.75l22-29.87c-7.06-6.56-11.5-15.9-11.5-26.31c0-9.53,3.73-18.16,9.78-24.59L187.76,379.35z"/>
	<path class="st0" d="M0.49,299.58c-0.08-1.36-0.12-2.73-0.18-4.09C0.36,296.86,0.41,298.22,0.49,299.58z"/>
	<path class="st0" d="M2.81,243.88c0.6-4.27,1.3-8.5,2.08-12.71C4.11,235.37,3.41,239.61,2.81,243.88z"/>
	<path class="st0" d="M1.3,256.64c0.4-4.18,0.89-8.34,1.47-12.47C2.2,248.3,1.69,252.45,1.3,256.64z"/>
	<path class="st0" d="M0.35,269.75c0.17-3.33,0.43-6.63,0.71-9.93C0.79,263.12,0.51,266.42,0.35,269.75z"/>
	<path class="st0" d="M244.97,404.58c12.35,0,23.23,6.23,29.71,15.71l101.76-52.85c-1.92-4.62-3.16-9.59-3.63-14.78l-168.92,0.91
		c-0.81,7.75-4.19,14.73-9.24,20.11l31.02,36.56C231.24,406.67,237.85,404.58,244.97,404.58z"/>
	<path class="st0" d="M175.23,545.48c-4.09-1.68-8.11-3.48-12.09-5.35C167.12,542.01,171.15,543.79,175.23,545.48z"/>
	<path class="st0" d="M102.09,237.31c-15.28,0-28.94-6.81-38.21-17.52L27.3,247.22c3.13,5.21,4.95,11.29,4.95,17.82
		c0,5-1.08,9.74-2.98,14.03l110.81,52.12c2.86-4.46,6.72-8.21,11.26-10.96l-34.94-85.01C111.86,236.56,107.07,237.31,102.09,237.31z
		"/>
	<path class="st0" d="M283.47,0C144.81,0,29.48,99.58,4.91,231.1c6.5,1.42,12.32,4.63,16.9,9.12l36.89-27.64
		c-4.51-7.57-7.15-16.38-7.15-25.83c0-27.92,22.63-50.55,50.55-50.55c18,0,33.76,9.44,42.72,23.61l123.91-60.96
		c-2.07-5.52-3.26-11.48-3.26-17.73c0-27.92,22.63-50.55,50.55-50.55c27.92,0,50.55,22.63,50.55,50.55
		c0,27.92-22.63,50.55-50.55,50.55c-4.17,0-8.19-0.56-12.06-1.51l-17.7,52.54c11.56,5.65,19.54,17.48,19.54,31.21
		c0,7.18-2.18,13.85-5.91,19.38l88.74,77.9c9.04-8.46,21.15-13.68,34.51-13.68c27.92,0,50.55,22.63,50.55,50.55
		c0,4.6-0.67,9.04-1.82,13.27l74.52,28.14c-1.12,2.76-2.27,5.5-3.47,8.22l-74.15-28c-8.11,17.08-25.47,28.91-45.63,28.91
		c-17.87,0-33.54-9.3-42.53-23.29l-101.88,52.91c0.57,1.55,1.06,3.14,1.41,4.79l256.52-22.1c-1.59,3.15-3.2,6.29-4.91,9.37
		L280.85,441.9c-0.73,19.21-16.49,34.57-35.88,34.57c-6.24,0-12.12-1.6-17.23-4.4l-21.83,29.64c7.18,6.37,11.72,15.63,11.72,25.98
		c0,11.37-5.49,21.44-13.93,27.78c-9.46-2.77-18.72-6.02-27.75-9.7c33.16,13.61,69.45,21.16,107.51,21.16
		c156.55,0,283.46-126.91,283.46-283.46S440.02,0,283.47,0z"/>
	<path class="st0" d="M124.68,231.93l34.81,84.68c3.12-0.92,6.41-1.43,9.83-1.43c5.82,0,11.29,1.45,16.1,3.97l61.2-80.5
		c-6.39-6.3-10.35-15.05-10.35-24.73c0-0.38,0.05-0.75,0.06-1.13l-85.24-13.86C147.51,213.41,137.72,225.39,124.68,231.93z"/>
	<path class="st0" d="M293.96,239.98c-6.12,5.39-14.13,8.69-22.93,8.69c-6.3,0-12.2-1.7-17.29-4.64l-61.01,80.26
		c5.73,5.23,9.68,12.34,10.91,20.36l169.16-0.92c0.82-9.67,4.38-18.54,9.88-25.89L293.96,239.98z"/>
	<path class="st0" d="M272.57,106.9L148.9,167.74c2.39,5.87,3.73,12.28,3.73,19.02c0,1.13-0.1,2.25-0.17,3.36l85.27,13.86
		c4.27-14.35,17.55-24.82,33.29-24.82c2.32,0,4.58,0.24,6.77,0.67l17.69-52.53C285.89,123.04,277.9,115.87,272.57,106.9z"/>
</g>
<linearGradient id="SVGID_1_" gradientUnits="userSpaceOnUse" x1="0" y1="293.0315" x2="546.3593" y2="293.0315">
	<stop  offset="0" style="stop-color:#FFED31"/>
	<stop  offset="0.5494" style="stop-color:#FFD500"/>
	<stop  offset="1" style="stop-color:#F8AA28"/>
</linearGradient>
<path class="st1" d="M217.63,527.7c0-10.35-4.55-19.61-11.72-25.98l21.83-29.64c5.12,2.8,10.99,4.4,17.23,4.4
	c19.39,0,35.15-15.36,35.88-34.57l250.89-21.62c1.7-3.08,3.32-6.22,4.91-9.37l-256.52,22.1c-0.35-1.64-0.84-3.23-1.41-4.79
	l101.88-52.91c8.99,14,24.66,23.29,42.53,23.29c20.16,0,37.52-11.83,45.63-28.91l74.15,28c1.2-2.72,2.35-5.46,3.47-8.22
	l-74.52-28.14c1.15-4.24,1.82-8.67,1.82-13.27c0-27.92-22.63-50.55-50.55-50.55c-13.36,0-25.47,5.22-34.51,13.68l-88.74-77.9
	c3.73-5.54,5.91-12.21,5.91-19.38c0-13.73-7.98-25.56-19.54-31.21l17.7-52.54c3.87,0.95,7.9,1.51,12.06,1.51
	c27.92,0,50.55-22.63,50.55-50.55c0-27.92-22.63-50.55-50.55-50.55c-27.92,0-50.55,22.63-50.55,50.55c0,6.25,1.19,12.2,3.26,17.73
	l-123.91,60.96c-8.95-14.17-24.72-23.61-42.72-23.61c-27.91,0-50.55,22.63-50.55,50.55c0,9.45,2.64,18.26,7.15,25.83l-36.89,27.64
	c-4.58-4.49-10.4-7.71-16.9-9.12C1.74,248.08,0,265.57,0,283.46c0,5.42,0.19,10.8,0.49,16.15c9.75-0.84,18.35-5.66,24.13-12.88
	l111.64,52.51c-1.09,3.37-1.69,6.95-1.69,10.68c0,18.05,13.76,32.88,31.37,34.58l7.16,109.86c-14.42,4.23-24.96,17.54-24.96,33.33
	c0,1.74,0.17,3.45,0.42,5.12c17.36,9.41,35.84,17,55.15,22.65C212.14,549.13,217.63,539.07,217.63,527.7z M274.67,420.29
	c-6.47-9.48-17.36-15.71-29.71-15.71c-7.11,0-13.73,2.09-19.31,5.66l-31.02-36.56c5.05-5.39,8.43-12.36,9.24-20.11l168.92-0.91
	c0.47,5.19,1.71,10.16,3.63,14.78L274.67,420.29z M293.96,239.98l88.7,77.87c-5.5,7.35-9.05,16.22-9.88,25.89l-169.16,0.92
	c-1.23-8.02-5.18-15.13-10.91-20.36l61.01-80.26c5.1,2.93,10.99,4.64,17.29,4.64C279.83,248.67,287.84,245.37,293.96,239.98z
	 M272.57,106.9c5.33,8.96,13.32,16.13,22.92,20.41l-17.69,52.53c-2.19-0.43-4.45-0.67-6.77-0.67c-15.74,0-29.02,10.47-33.29,24.82
	l-85.27-13.86c0.07-1.12,0.17-2.23,0.17-3.36c0-6.73-1.34-13.14-3.73-19.02L272.57,106.9z M140.09,331.19L29.27,279.07
	c1.9-4.29,2.98-9.04,2.98-14.03c0-6.52-1.83-12.6-4.95-17.82l36.59-27.44c9.27,10.71,22.93,17.52,38.21,17.52
	c4.98,0,9.77-0.75,14.31-2.09l34.94,85.01C146.81,322.99,142.95,326.73,140.09,331.19z M169.32,315.18c-3.42,0-6.71,0.51-9.83,1.43
	l-34.81-84.68c13.04-6.54,22.83-18.52,26.41-32.99l85.24,13.86c-0.01,0.38-0.06,0.75-0.06,1.13c0,9.68,3.97,18.43,10.35,24.73
	l-61.2,80.5C180.61,316.63,175.14,315.18,169.32,315.18z M182.88,492.95c-0.32,0-0.63,0.04-0.95,0.05l-7.08-108.8
	c4.68-0.75,9.05-2.43,12.91-4.85l31.04,36.58c-6.05,6.43-9.78,15.07-9.78,24.59c0,10.4,4.44,19.74,11.5,26.31l-22,29.87
	C193.82,494.32,188.51,492.95,182.88,492.95z"/>
</svg>
